<?xml version="1.0" encoding="UTF-8"?>
<!DOCTYPE svg PUBLIC "-//W3C//DTD SVG 1.1//EN" "http://www.w3.org/Graphics/SVG/1.1/DTD/svg11.dtd">
<!-- Creator: CorelDRAW X7 -->
<svg xmlns="http://www.w3.org/2000/svg" xml:space="preserve" width="63.278mm" height="13.14mm" version="1.1" style="shape-rendering:geometricPrecision; text-rendering:geometricPrecision; image-rendering:optimizeQuality; fill-rule:evenodd; clip-rule:evenodd"
viewBox="0 0 6328 1314"
 xmlns:xlink="http://www.w3.org/1999/xlink">
 <defs>
  <style type="text/css">
   <![CDATA[
    .fil0 {fill:#E62129}
    .fil2 {fill:#E62129;fill-rule:nonzero}
    .fil1 {fill:#222222;fill-rule:nonzero}
   ]]>
  </style>
 </defs>
 <g id="Layer_x0020_1">
  <metadata id="CorelCorpID_0Corel-Layer"/>
  <g id="_2510311274992">
   <g>
    <rect class="fil0" transform="matrix(0.315246 0.0945812 -0.0945812 0.315246 350.801 49.9918)" width="127" height="2328"/>
    <rect class="fil0" transform="matrix(0.315246 0.0945812 -0.0945812 0.315246 421.677 71.2565)" width="127" height="2328"/>
   </g>
   <path class="fil1" d="M772 740c170,0 252,-85 252,-183 0,-218 -345,-143 -345,-252 0,-37 31,-68 113,-68 52,0 109,15 164,47l42 -104c-55,-35 -131,-53 -205,-53 -169,0 -250,84 -250,185 0,220 344,144 344,255 0,36 -33,63 -114,63 -71,0 -146,-25 -196,-62l-46 104c52,40 147,68 241,68z"/>
   <polygon id="1" class="fil1" points="1583,137 1583,371 1314,371 1314,137 1176,137 1176,730 1314,730 1314,487 1583,487 1583,730 1720,730 1720,137 "/>
   <path id="2" class="fil1" d="M2183 740c168,0 268,-96 268,-271l0 -332 -136 0 0 327c0,113 -48,159 -132,159 -83,0 -132,-46 -132,-159l0 -327 -137 0 0 332c0,175 100,271 269,271z"/>
   <polygon id="3" class="fil1" points="2758,730 2895,730 2895,249 3085,249 3085,137 2568,137 2568,249 2758,249 "/>
   <polygon id="4" class="fil1" points="3348,730 3485,730 3485,249 3675,249 3675,137 3158,137 3158,249 3348,249 "/>
   <polygon id="5" class="fil1" points="3807,730 4242,730 4242,618 3944,618 3944,137 3807,137 "/>
   <polygon id="6" class="fil1" points="4514,620 4514,483 4789,483 4789,376 4514,376 4514,247 4825,247 4825,137 4377,137 4377,730 4836,730 4836,620 "/>
   <polygon id="7" class="fil1" points="4961,545 5201,545 5201,439 4961,439 "/>
   <polygon id="8" class="fil1" points="5373,730 5510,730 5510,137 5373,137 "/>
   <polygon id="9" class="fil1" points="6117,137 6117,497 5823,137 5709,137 5709,730 5845,730 5845,370 6140,730 6253,730 6253,137 "/>
   <path class="fil2" d="M258 1118c-2,-9 -7,-15 -14,-20 -8,-5 -15,-8 -23,-8l-57 0c-8,0 -16,3 -23,8 -8,5 -13,11 -16,20l-6 15c-2,8 -6,15 -12,20 -6,5 -12,8 -17,8 -6,0 -10,-3 -12,-8 -3,-5 -3,-12 0,-20l85 -246c1,-4 2,-7 5,-11 2,-3 4,-6 7,-8 2,-3 5,-5 8,-6 3,-2 6,-3 8,-3 6,0 12,3 18,9 7,5 11,12 13,19l84 246c3,8 3,15 1,20 -3,5 -7,8 -13,8 -5,0 -11,-3 -17,-8 -5,-5 -9,-12 -11,-20l-8 -15zm-49 -61c8,0 14,-3 18,-9 4,-5 4,-12 2,-19l-27 -81c-3,-8 -6,-11 -10,-11 -3,0 -6,3 -9,11l-28 81c-3,7 -2,14 2,19 4,6 11,9 19,9l33 0z"/>
   <path id="1" class="fil2" d="M489 1110c0,6 0,12 0,18 0,7 -1,13 -4,18 -2,5 -5,8 -10,10 -4,2 -9,2 -13,0 -4,-1 -7,-3 -9,-6 -2,-3 -3,-6 -4,-9 0,-4 -1,-7 -1,-11 0,-3 0,-6 0,-10l0 -42c0,-10 0,-20 -1,-30 -1,-10 -5,-19 -10,-27 -4,-6 -9,-10 -15,-14 -6,-3 -12,-4 -19,-4 -6,0 -12,1 -18,3 -6,2 -11,6 -14,11 -3,3 -5,7 -7,12 -1,4 -2,8 -3,13 -1,4 -1,8 -1,13 0,4 0,9 0,13l0 44c0,4 0,8 0,12 0,5 0,9 -1,14 0,4 -2,8 -4,12 -2,3 -5,6 -10,8 -3,1 -6,1 -9,0 -3,-1 -6,-3 -8,-5 -3,-3 -4,-5 -6,-8 -1,-3 -2,-7 -3,-10l0 -17 0 -42 0 -79c0,-5 1,-10 2,-14 1,-5 4,-9 8,-13 2,-2 5,-4 8,-4 3,-1 6,-1 9,0 3,2 5,4 6,6 2,2 3,4 5,7 1,1 3,2 4,2 1,1 2,0 4,0 1,-1 2,-2 3,-3 1,-1 2,-1 4,-2 1,-1 3,-3 6,-4 2,-1 4,-2 6,-3 7,-2 13,-4 19,-4 6,0 12,1 18,1 18,3 33,10 44,22 9,9 16,20 19,33 3,12 5,25 5,37l0 52z"/>
   <path id="2" class="fil2" d="M656 997c7,9 13,19 17,31 4,11 6,23 6,34 0,12 -2,24 -6,35 -4,11 -10,22 -17,31 -5,5 -9,9 -14,13 -4,3 -9,7 -15,10 -12,5 -24,8 -37,8 -5,0 -11,-1 -17,-2 -6,-2 -12,-3 -18,-6 -6,-3 -11,-7 -16,-10 -5,-4 -9,-8 -13,-13 -8,-9 -13,-20 -17,-31 -4,-11 -6,-23 -6,-35 0,-11 2,-23 6,-34 4,-12 9,-22 17,-31 7,-10 17,-18 29,-23 6,-3 12,-5 18,-7 6,-1 12,-2 17,-2 7,0 13,1 19,2 6,2 12,4 18,7 6,3 11,6 15,10 5,3 9,8 14,13zm-37 119c5,-4 8,-8 11,-13 3,-4 6,-10 8,-17 3,-6 4,-14 4,-24 0,-9 -1,-17 -4,-24 -2,-6 -5,-12 -8,-17 -3,-5 -6,-9 -11,-13l3 2c-1,-2 -3,-3 -5,-4 -1,0 -3,-1 -5,-3 -3,-2 -7,-3 -10,-4 -4,0 -8,-1 -12,-1 -3,0 -6,1 -10,1 -4,1 -7,2 -10,4 -2,1 -3,1 -4,2 -1,1 -2,2 -4,3 -1,1 -2,2 -5,5 -2,2 -5,6 -7,10 -3,5 -5,10 -7,17 -2,6 -3,14 -3,22 0,9 1,16 3,23 2,6 4,12 7,16 2,5 5,8 7,10 3,3 4,4 5,5 2,1 3,2 4,3 1,0 2,1 4,1 3,2 6,4 10,5 4,0 7,1 10,1 4,0 8,-1 12,-1 3,-1 7,-3 10,-5 1,0 2,-1 4,-1 1,-1 2,-2 3,-3z"/>
   <path id="3" class="fil2" d="M841 980c0,5 -2,9 -8,12 -6,3 -12,5 -20,5l-17 0c-8,0 -15,3 -20,8 -6,6 -8,12 -8,21l0 105c0,7 -3,14 -7,19 -4,6 -9,9 -13,9 -6,0 -11,-3 -15,-9 -5,-5 -7,-12 -7,-19l0 -105c0,-9 -2,-15 -5,-21 -3,-5 -7,-8 -11,-8 -5,0 -9,-2 -12,-5 -3,-3 -5,-7 -5,-12 0,-4 2,-8 5,-11 3,-2 7,-4 12,-4 4,0 8,-3 11,-8 3,-5 5,-11 5,-19 0,-7 2,-13 7,-18 4,-4 9,-7 15,-7 4,0 9,3 13,7 4,5 7,11 7,18 0,8 2,14 8,19 5,5 12,8 20,8l17 0c8,0 14,2 20,4 6,3 8,7 8,11z"/>
   <path id="4" class="fil2" d="M1028 1059c0,12 0,24 0,36 0,12 0,25 0,37 0,4 -1,7 -3,11 -1,3 -3,6 -5,9 -3,2 -6,4 -9,5 -3,1 -7,1 -11,-1 -3,-1 -6,-3 -7,-5 -2,-3 -4,-5 -4,-8 -1,-3 -2,-6 -2,-9 0,-3 0,-6 0,-9l0 -44c0,-10 0,-19 -1,-29 -1,-10 -3,-19 -8,-28 -3,-5 -8,-10 -13,-14 -5,-3 -11,-6 -17,-7 -7,-1 -13,0 -19,1 -6,2 -12,5 -17,10 -3,4 -6,7 -7,11 -2,4 -4,8 -4,13 -1,4 -2,9 -2,13 0,5 0,10 0,14l0 41c0,4 0,8 0,12 0,5 0,9 0,13 0,4 -1,8 -2,12 -1,4 -3,8 -6,10 -3,3 -6,5 -9,5 -4,1 -7,0 -10,-1 -3,-2 -5,-4 -8,-7 -2,-3 -4,-6 -5,-10 0,-2 0,-5 -1,-7 0,-2 0,-5 0,-8l0 -164 0 -52c0,-5 0,-11 0,-16 0,-6 1,-11 3,-15 1,-3 2,-6 4,-8 2,-3 5,-5 7,-6 3,-1 5,-2 8,-2 3,1 6,2 9,4 4,3 6,7 8,12 1,4 2,9 2,14l0 48 0 26 0 10c0,3 2,4 3,4 2,0 4,-1 6,-2 2,-2 5,-3 7,-5 3,-1 5,-2 8,-4 0,0 1,0 2,0 0,0 1,-1 2,-1 3,-1 7,-2 11,-2 3,-1 7,-1 12,-1 4,0 9,0 15,2 2,0 4,0 6,2 6,1 12,4 19,8 2,2 5,4 7,6 3,2 5,4 7,6 9,9 15,20 18,32 4,13 6,25 6,38z"/>
   <path id="5" class="fil2" d="M1213 1109c1,1 1,2 1,2 -1,0 -1,0 -1,-1 0,0 0,-1 0,-1 0,-1 0,-1 0,0 2,5 2,10 -1,14 -2,5 -6,9 -10,12 -8,8 -18,14 -28,18 -10,3 -21,5 -33,5 -12,1 -23,0 -33,-2 -13,-3 -25,-9 -35,-17 -10,-8 -17,-19 -22,-32 -4,-9 -6,-19 -7,-30 -2,-10 -1,-20 1,-30 2,-9 5,-17 8,-25 3,-8 8,-15 13,-22 5,-7 11,-13 17,-18 7,-5 15,-9 23,-12 9,-3 17,-5 26,-5 9,0 18,1 26,4 8,2 16,6 23,11 8,5 14,11 19,18 5,7 9,15 12,24 3,9 5,17 7,26 0,4 1,8 1,13 0,4 -2,7 -5,10 -2,2 -6,3 -10,3 -5,0 -8,0 -12,0l-6 0 -19 0 -55 0c-3,0 -6,0 -9,0 -3,0 -6,0 -8,0 -6,1 -10,3 -14,7 -3,4 -3,8 -1,14 2,3 3,6 4,9 2,3 4,5 6,8 6,5 12,10 20,14 7,2 14,4 22,4 7,0 14,-1 21,-4 5,-1 10,-3 14,-6 5,-2 10,-5 15,-8 2,-2 4,-4 7,-6 3,-2 6,-3 9,-3 2,-1 5,-1 8,0 2,0 4,2 6,6zm-127 -82c0,0 0,0 0,0 0,0 0,0 0,0 0,-1 0,-1 0,-1 0,0 0,0 0,1 -1,1 -1,3 -2,5 0,2 0,3 1,5 1,3 4,4 7,5 4,0 7,0 9,0l18 0 40 0c2,0 4,0 7,0 2,-1 5,-1 7,-2 2,0 4,-1 6,-3 1,-1 2,-3 1,-6 0,-6 -2,-10 -6,-15 -3,-4 -7,-7 -11,-10 -7,-5 -14,-8 -22,-8 -9,-1 -16,0 -24,1 -7,3 -13,7 -18,11 -5,5 -10,10 -13,17z"/>
   <path id="6" class="fil2" d="M1356 971c6,4 9,6 10,6 0,0 -1,-1 -3,-1 -2,-1 -4,-3 -6,-4 -2,-1 -3,-1 -1,-1 3,2 6,4 10,7 3,3 7,6 9,10 3,4 5,8 7,12 1,4 1,8 0,12 -1,3 -3,6 -6,8 -3,1 -5,2 -9,2 -3,1 -7,0 -9,-2 -3,-1 -6,-3 -10,-5 -5,-4 -10,-7 -16,-9 -6,-1 -13,-2 -19,-1 -7,2 -14,5 -20,11 -7,5 -11,11 -14,18 -1,6 -2,12 -2,18 0,6 0,12 0,18l0 51c0,2 0,5 0,8 0,3 0,6 -1,9 -1,3 -2,6 -4,10 -2,3 -4,5 -7,7 -2,2 -5,3 -9,4 -3,0 -6,-1 -10,-4 -3,-3 -5,-6 -7,-10 -2,-4 -3,-8 -3,-12 0,-4 0,-8 0,-13 0,-4 0,-8 0,-12l0 -35 0 -80c0,-2 1,-5 1,-9 1,-3 2,-6 4,-9 2,-3 4,-5 6,-7 3,-2 6,-3 10,-3 3,0 6,1 9,4 3,2 5,4 7,8 1,2 2,4 3,5 2,1 4,1 6,-1 2,-1 3,-3 5,-4 1,-1 3,-3 5,-4 2,-2 5,-3 8,-4 3,-1 6,-2 9,-3 7,-1 15,-2 23,-1 8,1 16,3 24,6z"/>
   <path id="7" class="fil2" d="M1778 862c6,0 10,3 14,9 3,5 4,12 1,19l-72 241c-3,7 -7,14 -12,19 -6,6 -11,9 -17,9 -6,0 -11,-3 -17,-9 -5,-5 -9,-12 -11,-19l-11 -44c-2,-7 -5,-11 -8,-11 -3,0 -5,4 -7,11l-12 44c-2,7 -6,14 -11,19 -6,6 -11,9 -17,9 -5,0 -11,-3 -17,-9 -5,-5 -10,-12 -12,-19l-72 -241c-3,-7 -2,-14 1,-19 4,-6 9,-9 14,-9 6,0 11,3 15,9 5,5 8,12 11,19l54 181c2,8 5,11 9,11 3,0 6,-3 9,-11l11 -34c2,-3 3,-7 4,-12 0,-5 1,-10 1,-15 0,-5 0,-10 -1,-14 -1,-5 -2,-10 -3,-14l-30 -92c-3,-7 -3,-14 0,-19 2,-6 6,-9 11,-9 5,0 10,3 14,9 4,5 7,12 9,19l12 44c2,8 4,12 7,12 3,0 6,-4 8,-12l11 -44c2,-7 5,-14 10,-19 4,-6 9,-9 13,-9 5,0 9,3 11,9 3,5 3,12 0,19l-30 92c-1,4 -2,9 -2,14 -1,4 -1,9 -1,14 0,5 1,10 1,15 1,5 2,9 3,12l12 34c2,8 5,11 9,11 3,0 6,-3 8,-11l55 -181c2,-7 6,-14 10,-19 4,-6 9,-9 15,-9z"/>
   <path id="8" class="fil2" d="M1969 1041c1,8 2,16 1,24 0,9 0,17 0,25l0 40c0,3 0,6 -1,9 0,3 -1,6 -3,9 -1,2 -3,5 -5,7 -2,2 -5,3 -8,4 -3,0 -6,0 -9,-2 -3,-1 -6,-3 -8,-5 -1,-1 -2,-2 -3,-3 -1,0 -2,0 -4,2 -5,3 -10,5 -15,6 -6,1 -11,2 -17,2 -6,0 -13,0 -19,-1 -7,-1 -13,-3 -18,-4 -8,-2 -16,-6 -23,-11 -7,-5 -13,-12 -17,-20 -4,-7 -6,-15 -7,-23 0,-9 1,-17 4,-25 2,-8 7,-14 12,-19 5,-6 11,-10 18,-13 7,-3 14,-5 22,-7 8,-1 15,-1 23,-1 7,0 15,0 22,2 2,1 5,1 7,2 3,1 5,1 7,0 1,-1 2,-2 2,-4 0,-2 -1,-3 -1,-5 0,-2 -1,-4 -2,-6 -1,-2 -1,-3 -2,-4 -2,-6 -5,-10 -10,-14 -6,-6 -13,-9 -21,-9 -7,0 -15,1 -22,4 -3,1 -6,3 -8,4 -3,2 -5,3 -8,5 -3,1 -5,2 -8,3 -3,1 -6,2 -9,1 -6,0 -10,-2 -12,-6 -2,-3 -3,-7 0,-12 2,-6 6,-11 12,-15 5,-4 11,-7 17,-9 11,-5 24,-7 39,-7 14,0 27,3 38,9 13,6 22,16 28,28 7,12 9,25 8,39zm-74 87c7,0 10,1 11,1 0,0 -1,0 -4,0 -3,0 -6,-1 -11,-1 -4,0 -7,0 -10,0 -2,0 -2,0 -1,0 2,0 6,0 15,0 7,1 14,0 22,-3 8,-3 13,-8 16,-15 0,-2 1,-4 1,-7 0,-2 0,-4 0,-6 -1,-9 -4,-16 -11,-21 -7,-5 -14,-8 -23,-9 -4,-1 -9,0 -15,0 -5,0 -10,1 -15,3 -5,1 -9,4 -13,7 -4,3 -7,7 -9,12 -2,5 -3,10 -1,16 2,5 4,9 8,12 3,3 7,5 12,7 4,2 9,3 14,3 5,1 10,1 14,1z"/>
   <path id="9" class="fil2" d="M2104 1132c-1,2 -2,4 -3,7 -2,5 -5,11 -9,19l-38 80c-3,8 -7,14 -12,19 -5,5 -10,7 -15,7 -4,0 -7,-1 -10,-2 -3,-1 -5,-3 -7,-5 -2,-3 -3,-6 -3,-9 0,-3 1,-6 3,-10l37 -80c3,-8 5,-16 5,-26 0,-11 -2,-20 -5,-28l-57 -113c-2,-3 -3,-7 -2,-10 0,-3 1,-6 3,-8 2,-2 4,-4 7,-6 3,-1 6,-2 9,-2 6,0 11,3 16,8 4,5 8,11 11,18l34 68c4,7 9,11 14,11 5,0 9,-4 12,-11l32 -68c4,-7 8,-13 12,-18 5,-5 10,-8 16,-8 3,0 6,1 9,2 3,2 5,4 7,6 2,2 3,5 3,8 0,3 -1,7 -3,10l-53 113c-2,4 -3,8 -4,11 -2,4 -3,7 -5,9 -1,3 -2,5 -4,8z"/>
   <path id="10" class="fil2" d="M2437 980c0,5 -3,9 -8,12 -6,3 -13,5 -20,5l-18 0c-8,0 -14,3 -20,8 -5,6 -8,12 -8,21l0 105c0,7 -2,14 -6,19 -4,6 -9,9 -14,9 -5,0 -10,-3 -15,-9 -4,-5 -6,-12 -6,-19l0 -105c0,-9 -2,-15 -5,-21 -3,-5 -7,-8 -12,-8 -4,0 -8,-2 -12,-5 -3,-3 -4,-7 -4,-12 0,-4 1,-8 4,-11 4,-2 8,-4 12,-4 5,0 9,-3 12,-8 3,-5 5,-11 5,-19 0,-7 2,-13 6,-18 5,-4 10,-7 15,-7 5,0 10,3 14,7 4,5 6,11 6,18 0,8 3,14 8,19 6,5 12,8 20,8l18 0c7,0 14,2 20,4 5,3 8,7 8,11z"/>
   <path id="11" class="fil2" d="M2600 997c7,9 13,19 17,31 4,11 6,23 6,34 0,12 -2,24 -6,35 -4,11 -10,22 -17,31 -5,5 -9,9 -14,13 -4,3 -9,7 -15,10 -12,5 -24,8 -37,8 -6,0 -11,-1 -17,-2 -6,-2 -12,-3 -18,-6 -6,-3 -11,-7 -16,-10 -5,-4 -9,-8 -13,-13 -8,-9 -14,-20 -17,-31 -4,-11 -6,-23 -6,-35 0,-11 2,-23 6,-34 3,-12 9,-22 17,-31 7,-10 17,-18 29,-23 6,-3 12,-5 18,-7 6,-1 11,-2 17,-2 7,0 13,1 19,2 6,2 12,4 18,7 6,3 11,6 15,10 5,3 9,8 14,13zm-37 119c5,-4 8,-8 11,-13 3,-4 6,-10 8,-17 3,-6 4,-14 4,-24 0,-9 -1,-17 -4,-24 -2,-6 -5,-12 -8,-17 -3,-5 -6,-9 -11,-13l3 2c-2,-2 -3,-3 -5,-4 -1,0 -3,-1 -5,-3 -3,-2 -7,-3 -10,-4 -4,0 -8,-1 -12,-1 -3,0 -6,1 -10,1 -4,1 -7,2 -10,4 -2,1 -3,1 -4,2 -1,1 -2,2 -4,3 -1,1 -2,2 -5,5 -2,2 -5,6 -7,10 -3,5 -5,10 -7,17 -2,6 -3,14 -3,22 0,9 1,16 3,23 2,6 4,12 7,16 2,5 5,8 7,10 3,3 4,4 5,5 2,1 3,2 4,3 1,0 2,1 4,1 3,2 6,4 10,5 4,0 7,1 10,1 4,0 8,-1 12,-1 3,-1 7,-3 10,-5 1,0 2,-1 4,-1 1,-1 2,-2 3,-3z"/>
   <path id="12" class="fil2" d="M2968 878c0,5 -2,9 -8,12 -6,3 -13,5 -21,5l-36 0c-8,0 -15,3 -21,8 -6,6 -8,12 -8,20l0 206c0,9 -3,15 -7,21 -4,6 -9,9 -15,9 -6,0 -12,-3 -16,-9 -5,-6 -7,-12 -7,-21l0 -206c0,-8 -3,-14 -8,-20 -6,-5 -13,-8 -21,-8l-37 0c-7,0 -14,-2 -20,-5 -6,-3 -9,-7 -9,-12 0,-4 3,-8 9,-11 6,-4 13,-5 20,-5l37 0 52 0 51 0 36 0c8,0 15,1 21,5 6,3 8,7 8,11z"/>
   <path id="13" class="fil2" d="M3102 971c7,4 10,6 10,6 1,0 0,-1 -2,-1 -2,-1 -4,-3 -6,-4 -3,-1 -3,-1 -2,-1 3,2 7,4 10,7 4,3 7,6 10,10 3,4 5,8 6,12 2,4 2,8 0,12 -1,3 -3,6 -5,8 -3,1 -6,2 -9,2 -4,1 -7,0 -10,-2 -3,-1 -6,-3 -9,-5 -5,-4 -11,-7 -17,-9 -6,-1 -12,-2 -19,-1 -7,2 -14,5 -20,11 -6,5 -10,11 -13,18 -2,6 -2,12 -2,18 0,6 0,12 0,18l0 51c0,2 0,5 0,8 0,3 0,6 -1,9 -1,3 -2,6 -4,10 -2,3 -4,5 -7,7 -3,2 -6,3 -9,4 -3,0 -7,-1 -10,-4 -3,-3 -6,-6 -7,-10 -2,-4 -3,-8 -3,-12 -1,-4 -1,-8 -1,-13 1,-4 1,-8 1,-12l0 -35 0 -80c0,-2 0,-5 1,-9 1,-3 2,-6 4,-9 1,-3 3,-5 6,-7 2,-2 6,-3 9,-3 4,0 7,1 10,4 3,2 5,4 7,8 1,2 2,4 3,5 1,1 3,1 6,-1 1,-1 3,-3 4,-4 2,-1 3,-3 5,-4 3,-2 6,-3 9,-4 3,-1 5,-2 8,-3 8,-1 16,-2 24,-1 8,1 16,3 23,6z"/>
   <path id="14" class="fil2" d="M3301 1041c1,8 1,16 1,24 0,9 0,17 0,25l0 40c0,3 -1,6 -1,9 -1,3 -2,6 -3,9 -2,2 -3,5 -6,7 -2,2 -5,3 -8,4 -3,0 -6,0 -9,-2 -3,-1 -5,-3 -7,-5 -2,-1 -3,-2 -4,-3 0,0 -2,0 -4,2 -4,3 -9,5 -15,6 -5,1 -11,2 -17,2 -6,0 -12,0 -19,-1 -6,-1 -12,-3 -18,-4 -8,-2 -16,-6 -23,-11 -7,-5 -12,-12 -16,-20 -4,-7 -7,-15 -7,-23 -1,-9 0,-17 3,-25 3,-8 7,-14 12,-19 6,-6 12,-10 18,-13 7,-3 14,-5 22,-7 8,-1 16,-1 23,-1 8,0 15,0 23,2 2,1 4,1 7,2 2,1 5,1 6,0 1,-1 2,-2 2,-4 0,-2 0,-3 -1,-5 0,-2 -1,-4 -2,-6 0,-2 -1,-3 -1,-4 -2,-6 -6,-10 -10,-14 -6,-6 -13,-9 -21,-9 -8,0 -16,1 -23,4 -3,1 -6,3 -8,4 -3,2 -5,3 -8,5 -2,1 -5,2 -8,3 -3,1 -6,2 -9,1 -5,0 -9,-2 -12,-6 -2,-3 -2,-7 0,-12 2,-6 6,-11 12,-15 6,-4 11,-7 17,-9 12,-5 25,-7 39,-7 14,0 27,3 39,9 12,6 21,16 28,28 6,12 9,25 8,39zm-75 87c7,0 11,1 11,1 0,0 -1,0 -4,0 -2,0 -6,-1 -10,-1 -5,0 -8,0 -10,0 -3,0 -3,0 -2,0 2,0 7,0 15,0 7,1 15,0 22,-3 8,-3 13,-8 16,-15 1,-2 1,-4 1,-7 1,-2 1,-4 0,-6 0,-9 -4,-16 -11,-21 -7,-5 -14,-8 -22,-9 -5,-1 -10,0 -15,0 -6,0 -11,1 -16,3 -4,1 -9,4 -13,7 -4,3 -7,7 -9,12 -2,5 -2,10 -1,16 2,5 5,9 8,12 4,3 8,5 12,7 5,2 10,3 15,3 4,1 9,1 13,1z"/>
   <path id="15" class="fil2" d="M3474 965c6,0 11,3 14,8 3,5 3,11 0,18l-55 140c-3,7 -7,14 -13,19 -6,6 -12,9 -17,9 -6,0 -12,-3 -18,-9 -6,-5 -10,-12 -14,-19l-55 -140c-3,-7 -2,-13 1,-18 3,-5 7,-8 13,-8 6,0 11,3 16,8 4,5 8,11 12,18l33 88c3,8 7,12 12,12 4,0 7,-4 10,-12l35 -88c3,-7 6,-13 12,-18 5,-5 10,-8 14,-8z"/>
   <path id="16" class="fil2" d="M3675 1109c0,1 0,2 0,2 0,0 0,0 0,-1 0,0 0,-1 -1,-1 0,-1 0,-1 1,0 2,5 2,10 -1,14 -3,5 -6,9 -10,12 -9,8 -18,14 -28,18 -10,3 -21,5 -33,5 -12,1 -23,0 -33,-2 -14,-3 -25,-9 -35,-17 -10,-8 -17,-19 -22,-32 -4,-9 -7,-19 -8,-30 -1,-10 0,-20 2,-30 2,-9 4,-17 8,-25 3,-8 7,-15 12,-22 5,-7 11,-13 18,-18 7,-5 14,-9 23,-12 8,-3 17,-5 26,-5 9,0 17,1 26,4 8,2 15,6 23,11 7,5 13,11 18,18 6,7 10,15 13,24 3,9 5,17 7,26 0,4 0,8 1,13 0,4 -2,7 -5,10 -3,2 -6,3 -10,3 -5,0 -9,0 -12,0l-7 0 -19 0 -54 0c-3,0 -6,0 -9,0 -3,0 -6,0 -9,0 -5,1 -10,3 -13,7 -3,4 -4,8 -1,14 1,3 3,6 4,9 1,3 3,5 6,8 5,5 12,10 20,14 7,2 14,4 21,4 7,0 15,-1 22,-4 5,-1 9,-3 14,-6 5,-2 10,-5 15,-8 2,-2 4,-4 7,-6 3,-2 5,-3 8,-3 3,-1 6,-1 8,0 3,0 5,2 7,6zm-127 -82c-1,0 -1,0 -1,0 1,0 1,0 1,0 0,-1 0,-1 0,-1 0,0 0,0 0,1 -1,1 -1,3 -2,5 0,2 0,3 0,5 2,3 4,4 8,5 4,0 7,0 9,0l18 0 40 0c2,0 4,0 6,0 3,-1 5,-1 8,-2 2,0 4,-1 5,-3 2,-1 2,-3 2,-6 -1,-6 -3,-10 -6,-15 -4,-4 -7,-7 -11,-10 -7,-5 -14,-8 -23,-8 -8,-1 -16,0 -23,1 -7,3 -14,7 -19,11 -5,5 -9,10 -12,17z"/>
   <path id="17" class="fil2" d="M3728 1159c-1,0 -2,-1 -5,-1 -2,0 -5,-1 -7,-2 -3,-1 -6,-4 -8,-7 -2,-2 -3,-7 -3,-12l0 -39 0 -207c0,-8 2,-15 6,-20 4,-6 8,-9 14,-9 6,0 10,3 14,9 4,5 6,12 6,20l0 207 0 2c0,7 1,13 2,16 2,4 4,6 6,8 2,1 4,2 6,2 2,0 3,0 4,0 4,0 8,2 11,5 4,3 5,7 5,11 0,5 -2,8 -5,12 -3,3 -8,5 -13,5l-16 0 -17 0z"/>
  </g>
 </g>
</svg>
